<svg xmlns="http://www.w3.org/2000/svg" width="32.687" height="37.975" viewBox="0 0 32.687 37.975"><defs><style>.a{fill:#edbd00;}</style></defs><g transform="translate(0 0)"><path class="a" d="M173.512,327.415h-32.63c-.008-.123-.024-.245-.024-.368q0-18.589,0-37.178c0-.131.011-.263.019-.424h.355q11.546,0,23.092-.006a.744.744,0,0,1,.576.251q4.161,4.174,8.336,8.333a.949.949,0,0,1,.308.742q-.012,14.1-.007,28.208C173.537,327.121,173.521,327.268,173.512,327.415Zm-2.709-2.74V300.247h-8.082v-8.058h-19.13v32.487Zm-5.338-30.47v3.308h3.307Z" transform="translate(-140.857 -289.44)"/><path class="a" d="M431.6,860.279v-2.671h13.145v2.671Z" transform="translate(-417.081 -829.232)"/><path class="a" d="M444.949,722v2.671H431.8V722Z" transform="translate(-417.274 -700.399)"/><path class="a" d="M444.773,586.485v2.651H431.618v-2.651Z" transform="translate(-417.097 -571.65)"/><path class="a" d="M233.832,668.852l-2.92-2.913,1.874-1.879.966,1.031,2.986-2.994,1.925,1.93Z" transform="translate(-226.415 -643.486)"/><path class="a" d="M237.77,526.521l1.873,1.879-4.853,4.852-2.849-2.9,1.84-1.844.946,1.066Z" transform="translate(-227.393 -514.681)"/><path class="a" d="M234.083,804.189l-2.87-2.863,1.872-1.872.947,1.011,3-2.992,1.884,1.892Z" transform="translate(-226.7 -772.101)"/></g></svg>