<svg xmlns="http://www.w3.org/2000/svg" width="40.491" height="37.975" viewBox="0 0 40.491 37.975"><defs><style>.a{fill:#edbd00;}</style></defs><g transform="translate(0 0)"><path class="a" d="M-712.509-783.915v14.464c-.115,0-.229.013-.344.013l-39.789,0a3.059,3.059,0,0,0-.312.031H-753q0-7.151,0-14.3a.835.835,0,0,1,.054-.312c.2-.474.4-.944.605-1.416q1.968-4.555,3.932-9.112a.26.26,0,0,1,.284-.194c.821.008,1.643,0,2.464,0,.081,0,.161-.007.263-.011v-12.629h6.929q5.24,0,10.479,0a.54.54,0,0,1,.441.184c.212.232.442.447.664.669q3.319,3.314,6.635,6.631a.528.528,0,0,1,.136.337c.009,1.512.006,3.025.006,4.537v.273c.075.005.12.011.165.012.859.014,1.719.03,2.578.036a.246.246,0,0,1,.272.179c.139.357.3.706.449,1.057q1.523,3.534,3.046,7.068C-713.238-785.567-712.872-784.742-712.509-783.915Zm-10.132-.693c0-.343,0-.656,0-.97q0-7.019-.005-14.039a.526.526,0,0,0-.123-.34c-1.567-1.581-3.144-3.152-4.714-4.731a.515.515,0,0,0-.4-.163q-7.346.006-14.693,0h-.283v20.239h5.043v5.046H-727.7v-5.046Zm-27.82,2.544v10.08h35.41v-10.08h-10.114v5.029h-15.187v-5.029Zm5.049-10.134c-.358,0-.694,0-1.03,0a.369.369,0,0,0-.355.267q-1.184,2.779-2.384,5.551-.357.83-.713,1.661a31.957,31.957,0,0,0,4.481.071Zm25.323-.016v7.576h4.49c-.033-.084-.051-.134-.072-.182q-.663-1.551-1.327-3.1-.874-2.035-1.755-4.068c-.029-.066-.1-.159-.151-.164C-719.293-792.184-719.683-792.2-720.089-792.214Z" transform="translate(753 807.38)"/><path class="a" d="M-582.97-733.681v-7.586h5.038v7.561h5.1l-7.617,10.11-7.6-10.085Z" transform="translate(600.689 746.335)"/></g></svg>