<svg xmlns="http://www.w3.org/2000/svg" width="7.283" height="13.471" viewBox="0 0 7.283 13.471"><defs><style>.a{fill:#e7e7e7;}</style></defs><path class="a" d="M-241.991-173.423h-1.682c-.251,0-.349-.1-.349-.345q0-1.032,0-2.065c0-.249.106-.353.358-.354h1.673v-.122c0-.456,0-.913,0-1.369a3.678,3.678,0,0,1,.459-1.884,2.836,2.836,0,0,1,1.85-1.355,4.241,4.241,0,0,1,1.062-.11c.508,0,1.016,0,1.524,0,.253,0,.356.1.357.353q0,.949,0,1.9c0,.256-.1.351-.353.354-.456.005-.913,0-1.368.022a.628.628,0,0,0-.645.485.806.806,0,0,0-.036.217c0,.5,0,.993,0,1.51h1.948c.275,0,.372.1.372.371q0,1.021,0,2.043c0,.26-.091.35-.353.35h-1.97c0,.055,0,.1,0,.147q0,2.666,0,5.333c0,.3-.092.387-.389.387h-2.076c-.291,0-.379-.089-.379-.384q0-2.661,0-5.322Z" transform="translate(244.023 181.027)"/></svg>