<svg xmlns="http://www.w3.org/2000/svg" width="11.175" height="11.175" viewBox="0 0 11.175 11.175"><defs><style>.a{fill:#7f7f7f;}</style></defs><path class="a" d="M7.582,2a5.587,5.587,0,1,0,5.593,5.587A5.585,5.585,0,0,0,7.582,2Zm3.872,3.352H9.805a8.744,8.744,0,0,0-.771-1.989A4.486,4.486,0,0,1,11.454,5.352ZM7.587,3.14A7.871,7.871,0,0,1,8.654,5.352H6.52A7.871,7.871,0,0,1,7.587,3.14ZM3.263,8.7a4.371,4.371,0,0,1,0-2.235H5.151a9.228,9.228,0,0,0-.078,1.117A9.228,9.228,0,0,0,5.151,8.7Zm.458,1.117H5.369a8.744,8.744,0,0,0,.771,1.989A4.462,4.462,0,0,1,3.721,9.822Zm1.648-4.47H3.721A4.462,4.462,0,0,1,6.14,3.363a8.744,8.744,0,0,0-.771,1.989Zm2.218,6.682A7.871,7.871,0,0,1,6.52,9.822H8.654A7.871,7.871,0,0,1,7.587,12.035ZM8.895,8.7H6.28A8.22,8.22,0,0,1,6.19,7.587,8.149,8.149,0,0,1,6.28,6.47H8.895a8.149,8.149,0,0,1,.089,1.117A8.22,8.22,0,0,1,8.895,8.7Zm.14,3.107a8.744,8.744,0,0,0,.771-1.989h1.648A4.486,4.486,0,0,1,9.034,11.811ZM10.023,8.7A9.227,9.227,0,0,0,10.1,7.587a9.227,9.227,0,0,0-.078-1.117h1.889a4.371,4.371,0,0,1,0,2.235Z" transform="translate(-2 -2)"/></svg>