<svg xmlns="http://www.w3.org/2000/svg" width="41.927" height="33.49" viewBox="0 0 41.927 33.49"><defs><style>.a{fill:#edbd00;}</style></defs><g transform="translate(0)"><path class="a" d="M431.6,774.307v-4.7h21.765v4.7Z" transform="translate(-411.46 -742.648)"/><path class="a" d="M453.4,508.485v4.664H431.618v-4.664Z" transform="translate(-411.475 -504.469)"/><path class="a" d="M236,720.857c-1.632-1.627-4.536-4.47-6.223-6.152l3.293-3.293c.525.56,2.272,2.29,2.839,2.9,1.829-1.827,5.773-5.509,7.47-7.2l3.314,3.329C243.913,713.212,238.833,718.029,236,720.857Z" transform="translate(-229.78 -687.367)"/><path class="a" d="M239.641,476.141H226.278V462.778h13.363Zm-8.712-4.651h4.062v-4.062h-4.062Z" transform="translate(-225.539 -462.778)"/></g></svg>