<svg xmlns="http://www.w3.org/2000/svg" width="44.234" height="27.714" viewBox="0 0 44.234 27.714"><defs><style>.a{fill:#edbd00;}</style></defs><g transform="translate(0)"><path class="a" d="M1331.721,174.186a29.8,29.8,0,0,1,2.29-4.765,24.058,24.058,0,0,1,4.123-5.237,20.755,20.755,0,0,1,4.679-3.333,28.247,28.247,0,0,1,10.34-2.862c.105-.011.211-.025.315-.041s.183-.032.305-.055v-8.529l16.636,13.864-16.614,13.846v-9.336A27.047,27.047,0,0,0,1331.721,174.186Z" transform="translate(-1331.721 -149.365)"/><path class="a" d="M1721.314,177.252c0-.8-.009-1.479.009-2.16a.51.51,0,0,1,.2-.311q2.428-2.031,4.866-4.052,2.472-2.061,4.939-4.129,1.684-1.4,3.374-2.8c.143-.119.282-.244.46-.4-.566-.476-1.1-.93-1.641-1.38q-3.055-2.551-6.112-5.1-2.908-2.422-5.824-4.834a.649.649,0,0,1-.271-.57c.017-.62.005-1.241.005-1.965l16.62,13.85Z" transform="translate(-1693.7 -149.538)"/></g></svg>