<svg xmlns="http://www.w3.org/2000/svg" width="16.176" height="13.47" viewBox="0 0 16.176 13.47"><defs><style>.a{fill:#e7e7e7;}</style></defs><path class="a" d="M-37.824,149.405v.4a.817.817,0,0,0-.064.15q-1.216,5.843-2.428,11.688c-.193.935-.739,1.152-1.518.588l-3.216-2.331c-.107-.077-.217-.152-.339-.237-.662.625-1.3,1.234-1.949,1.841-.493.464-.921.357-1.137-.286-.45-1.339-.9-2.677-1.338-4.019a.5.5,0,0,0-.373-.371c-1.073-.321-2.147-.642-3.21-1a2.512,2.512,0,0,1-.6-.432v-.337a2.851,2.851,0,0,1,.584-.408q7.327-2.749,14.662-5.477C-38.267,149-38.154,149.028-37.824,149.405Zm-10.124,10.7.065-.013c.068-.613.154-1.224.2-1.838a.809.809,0,0,1,.313-.591q3.218-2.889,6.422-5.8a1.165,1.165,0,0,0,.182-.377c-.129.009-.287-.027-.383.034q-3.849,2.44-7.689,4.9a.257.257,0,0,0-.123.355c.3.95.584,1.906.873,2.86Z" transform="translate(54 -149.073)"/></svg>